<svg height="1024" viewBox="0 0 1024 1024" width="1024" xmlns="http://www.w3.org/2000/svg"><g fill="none"><path d="m0 0h1024v1024h-1024z" fill="#3079ff"/><path d="m949.169094 352c6.599958 34.364409.973578 69.622141-9.792392 102.96018-1.347161 5.835107-7.177313 9.703004-12.113131 13.466363-8.649003 5.673549-18.260263 10.159169-27.565865 15.005919 10.09805-.693751 20.184779-1.520549 30.328112-1.872176-4.505633 15.5096-15.543299 29.032984-27.554544 41.140356-11.739549 12.040848-26.230024 21.90541-41.22993 30.93367-2.954699 1.85317-6.6226 3.715842-7.664103 6.918499-.984899 3.107622-.441507 6.386306-.316979 9.579459-3.860353 1.805652-6.826372 4.761219-7.6075 8.477061-5.80751 23.340429-6.916937 47.393615-4.675442 71.142691-21.747033 12.363964-43.256332 25.041542-64.527897 38.004223-3.64526 2.223803-7.347123 4.409593-11.298042 6.243755 3.101868-11.869786 12.5886-21.354211 19.358369-31.779476 5.366004-8.229972 12.815014-15.291022 18.848938-23.15036 3.079226-4.133993-2.694322-10.387251-8.592398-8.163448-5.320722.617723-6.520714 5.806597-8.320703 9.27535-6.067886 17.163198-15.214999 33.727679-27.701713 48.26793-3.101867-20.584433-3.090546-41.406452-2.298099-62.11443.362262-3.639815.237735-8.296496 4.381105-10.57732 23.603625-14.663795 45.848769-31.199767 63.41847-51.080946-.894334-.161558-2.660361-.484675-3.543374-.646233 4.539594-2.565927 10.777291-4.076972 13.25652-8.553089 2.999981-7.241615 2.354702-15.034429 2.683002-22.551643-.566034-37.310474 14.626324-73.318977 33.837524-106.466947 15.124433-22.979298 33.814882-44.609109 57.056245-62.294995 6.667883-4.580654 13.098031-10.149665 21.633827-12.164393zm-95.169094 189c5.230637-10.01654 8.278052-20.727483 13.213044-30.848659 12.689981-26.910532 25.675607-53.744965 39.786956-80.151341-28.143102 32.675036-44.062433 71.732882-53 111z" fill="#fefeff" transform="matrix(.99254615 -.12186934 .12186934 .99254615 -57.37208 107.974782)"/><path d="m402.917826 653.004325c17.285401-.962276 34.938788-1.168478 51.866148 2.431464 39.404349 7.474821 75.745462 24.23732 107.412157 45.553446 19.055713 13.059456 39.961301 24.529439 63.13448 31.273961 16.798068 4.871521 34.719985 6.297751 52.343535 5.026172 23.958879-2.964153 46.624833-12.73297 64.447295-26.814844 4.644581-3.496841 8.762047-7.741164 14.57026-9.854734 6.703314-1.108336 13.913852 5.524493 10.780998 11.109129-2.416774 4.708278-7.081246 8.248078-11.139039 11.908162-22.447152 17.020252-50.433986 29.289268-80.370152 32.047219-29.249922 3.161763-58.499843-4.510668-84.477673-15.645573-16.251061-7.088191-30.900886-16.52193-45.162834-26.20483-24.555612-15.963466-51.587672-29.667304-81.255307-37.133532-25.510388-6.392261-52.76125-8.213711-78.957882-4.012347-29.488615 4.209957-57.177082 14.683297-83.314041 26.866395-26.743638 13.016498-51.607563 28.80813-74.223789 46.721923-4.44567 3.969387-13.177881 2.972745-15.42558-2.414281-3.41133-6.039998 3.48095-10.112487 7.508906-13.875672 14.848736-11.693369 30.562737-22.647847 47.579607-31.918342 40.438688-22.931374 86.019236-41.163063 134.682911-45.063716z" fill="#fefeff"/><g fill="#fff" font-family="ArialRoundedMTBold, Arial Rounded MT Bold"><text font-size="210"><tspan x="371" y="536">Sign</tspan></text><text font-size="480"><tspan x="89" y="580">E</tspan></text></g></g></svg>